PathFileType	4	(X/Y/Z)	C:/Users/beibeiliu/ov580/test_trc\sequence.10_training_dense_right.trc
DataRate	CameraRate	NumFrames	NumMarkers	Units	OrigDataRate	OrigDataStartFrame	OrigNumFrames
120	120	12	19	mm	120	114	302
Frame#	Time	ThumbCMC			ThumbMCP			ThumbIP			ThumbTip			IndexMCP			IndexPIP			IndexTip			MiddleMCP			MiddlePIP			MiddleTip			RingMCP			RingPIP			RingTip			PinkyMCP			PinkyPIP			PinkyTip			BackHand1			BackHand2			BackHand3	
		X0	Y0	Z0	X1	Y1	Z1	X2	Y2	Z2	X3	Y3	Z3	X4	Y4	Z4	X5	Y5	Z5	X6	Y6	Z6	X7	Y7	Z7	X8	Y8	Z8	X9	Y9	Z9	X10	Y10	Z10	X11	Y11	Z11	X12	Y12	Z12	X13	Y13	Z13	X14	Y14	Z14	X15	Y15	Z15	X16	Y16	Z16	X17	Y17	Z17	X18	Y18	Z18	
113	0.941667	188.984	49.1525	16.3762	188.143	71.7775	-2.70233	187.033	78.905	-29.6124	178.948	82.4594	-47.66	192.997	56.3884	-52.5511	191.139	66.9399	-71.7183	186.432	70.6628	-97.555	185.279	42.5294	-64.3996	184.96	52.1034	-88.8048	186.964	58.966	-105.948	177.759	30.9431	-62.5732	176.335	33.7237	-84.1508	178.57	43.9981	-104.392	165.633	13.9902	-56.2338	168.169	22.4381	-72.6128	169.32	23.7482	-87.9948	182.458	11.0925	-24.2632	184.429	0.92067	3.61045	196.899	26.3177	-1.74555	
114	0.95	197.579	46.5834	12.6676	198.774	66.0015	-4.14344	195.419	73.0067	-26.2333	188.414	77.9814	-49.8823	196.556	55.193	-54.382	191.62	63.9077	-75.7568	186.266	69.554	-96.6627	185.188	40.9099	-66.9809	184.578	52.3317	-83.7458	183.439	59.8155	-106.565	176.118	31.0429	-62.1804	172.499	36.518	-84.7006	170.819	41.9471	-99.5616	160.577	14.0426	-52.5427	161.307	22.9698	-71.0599	161.276	26.1502	-85.8125	180.569	6.43452	-19.8412	186.713	0.899352	-0.227128	200.549	23.2532	-2.37009	
115	0.958333	204.991	42.6276	14.8985	209.807	63.7741	-6.33906	206.378	71.9317	-28.5965	195.198	74.8985	-48.5925	196.706	50.1488	-54.7784	192.57	62.8999	-76.6209	187.75	74.2419	-97.7058	185.981	42.1522	-65.4318	180.103	52.2008	-88.5266	179.615	63.3336	-110.229	169.41	29.4057	-58.6107	169.364	39.8593	-79.5023	164.922	45.9477	-98.4397	158.765	21.0955	-50.0068	158.106	29.9729	-67.2876	158.967	33.8725	-82.6882	178.971	7.89325	-18.7763	184.159	-0.351764	2.73142	202.179	16.6316	-8.19878	
116	0.966667	209.067	36.8612	8.52317	216.729	58.0829	-10.7346	214.284	68.5756	-33.5362	204.921	74.0338	-48.5947	198.548	49.3781	-56.746	194.599	63.9453	-78.7344	184.049	73.7397	-97.2501	186.637	44.4455	-66.8653	178.077	54.6286	-87.4991	174.239	63.6003	-108.049	169.951	35.1356	-61.3219	165.672	42.1804	-78.8531	162.733	51.3371	-94.9241	158.896	25.8743	-48.3857	155.545	31.9151	-61.3326	156.85	41.0605	-80.9388	179.379	10.7019	-22.9781	185.58	-2.61224	3.58669	205.984	14.3078	-7.28375	
117	0.975	212.82	34.0184	6.26147	224.164	54.1422	-11.7981	216.502	61.831	-33.9067	210.551	73.5549	-53.7062	202.923	51.5163	-61.273	197.321	64.4499	-77.605	187.817	76.4893	-95.6196	185.921	45.9426	-66.3445	182.467	56.8745	-81.3098	175.015	68.9343	-105.457	167.566	37.547	-59.9446	165.156	48.7338	-76.4503	163.774	59.5224	-96.575	154.9	30.8387	-49.5424	154.425	37.9232	-60.137	154.533	47.7024	-80.4738	179.214	12.1261	-23.168	179.769	-1.31458	2.13667	204.355	14.7104	-13.7984	
118	0.983333	220.177	29.1658	5.28065	226.683	47.6309	-18.2027	224.078	59.9035	-35.855	214.839	70.0252	-54.4168	204.34	49.5749	-59.2405	198.934	64.7055	-76.6517	191.449	80.5705	-93.8133	186.196	47.4272	-63.4525	181.597	61.1507	-80.6238	171.703	74.227	-101.787	166.185	43.3521	-60.8014	162.343	56.1004	-77.2721	163.704	66.2212	-92.3408	155.296	34.7622	-43.2091	150.162	47.0791	-61.2869	152.238	53.3945	-74.3001	177.192	10.5772	-22.273	179.891	-1.05571	-0.138959	204.062	10.8246	-17.3161	
119	0.991667	222.597	25.4117	0.446278	232.407	42.6709	-20.5962	226.286	54.4037	-38.1566	218.783	68.0212	-53.5308	205.566	49.7298	-59.6858	196.423	67.341	-76.0366	191.29	83.7555	-89.9075	185.474	51.6029	-66.3063	181.186	66.7627	-80.2102	171.885	80.4191	-95.8295	170.208	46.3896	-56.0052	162.868	61.9401	-73.5777	163.467	72.9088	-85.5566	153.602	38.693	-40.5171	153.571	53.2731	-57.4321	152.073	60.5594	-71.9707	178.646	13.2287	-21.3276	183.264	-0.67229	-4.60729	206.534	10.9668	-17.9015	
120	1	226.726	19.4098	-1.93412	236.868	37.2301	-25.9353	229.142	51.3463	-41.622	223.273	65.4794	-54.9007	202.791	53.2774	-62.7441	200.191	69.6313	-75.2322	192.895	86.3913	-86.0302	188.604	55.3789	-65.4075	182.022	69.1059	-75.897	175.694	87.1161	-93.8909	170.113	49.7298	-54.3394	164.605	64.1391	-67.9606	162.01	78.3323	-81.597	155.181	42.9167	-38.688	154.029	54.7626	-51.3811	152.159	66.2933	-68.6861	179.392	15.4245	-26.0401	184.537	-3.78772	-3.29302	205.478	6.81498	-21.4158	
121	1.00833	227.892	14.7562	-5.38044	239.483	32.0944	-21.661	231.449	48.9768	-43.365	227.206	64.5308	-54.8409	204.446	51.875	-59.1793	203.001	74.5437	-73.1377	195.894	93.5605	-83.0268	185.661	54.5586	-59.5926	184.887	73.0382	-72.6484	176.913	96.6363	-88.492	168.652	52.4137	-51.469	165.717	71.5117	-64.6601	167.554	86.7251	-78.3465	157.73	46.7399	-38.085	158.266	58.4846	-49.5869	153.449	71.7181	-64.4502	177.902	14.5459	-25.374	180.533	-2.17443	-5.18902	201.474	7.16761	-22.6901	
122	1.01667	229.51	10.4314	-7.61339	241.309	29.3371	-24.2634	233.656	46.5293	-40.6451	225.313	62.5064	-52.8372	207.99	55.3084	-58.9935	204.838	77.1598	-68.4192	202.925	94.2597	-74.1015	189.508	56.2591	-56.8797	185.737	77.3784	-65.9241	183.53	101.671	-80.099	171.016	56.3889	-49.0827	170.287	74.7636	-60.109	168.369	92.7125	-70.997	163.3	50.1294	-36.9294	161.351	61.2859	-44.7311	155.015	79.7819	-57.8845	175.635	14.4663	-25.9223	179.51	-5.89175	-3.54707	206.227	1.52811	-22.331	
123	1.025	228.732	5.8781	-6.36158	240.654	27.3699	-26.8493	234.204	43.347	-37.9331	231.685	64.5896	-51.1121	209.052	55.055	-56.4378	207.88	76.4767	-62.9344	202.523	102.886	-66.4085	189.087	60.1491	-53.7108	189.527	82.8346	-62.0551	188.179	105.154	-71.2247	173.619	59.685	-47.265	174.346	78.0676	-54.8109	172.614	95.8785	-61.8094	160.2	49.4969	-31.4045	159.834	69.0326	-41.5965	157.922	82.5417	-52.2428	174.242	14.0999	-23.7345	179.23	-7.64897	-6.56401	203.873	1.53742	-22.6893	
124	1.03333	224.536	4.89729	-7.98934	238.2	22.664	-23.8925	234.666	43.9141	-38.0298	228.523	61.9525	-47.0665	208.4	57.6763	-54.3061	207.718	79.4204	-57.4445	208.219	102.744	-58.5646	192.961	63.6554	-52.8903	189.059	81.9014	-55.6566	187.916	109.367	-63.2531	172.834	60.6915	-41.4121	173.04	79.6515	-48.9128	176.843	99.8867	-56.7679	160.002	54.4187	-29.8063	161.503	71.2611	-36.414	163.002	85.1802	-45.1114	176.062	15.7804	-23.3159	180.894	-8.5414	-7.55227	203.483	0.798686	-24.4218	
